<?xml version="1.0" encoding="UTF-8" standalone="no"?>
<svg
   version="1.1"
   viewBox="0 0 154.3607118048203 105.29543173713091"
   width="154.3607118048203"
   height="105.29543173713091"
   id="svg15"
   sodipodi:docname="fav.svg"
   inkscape:version="1.4 (e7c3feb100, 2024-10-09)"
   inkscape:export-filename="fav.ico"
   inkscape:export-xdpi="96"
   inkscape:export-ydpi="96"
   xmlns:inkscape="http://www.inkscape.org/namespaces/inkscape"
   xmlns:sodipodi="http://sodipodi.sourceforge.net/DTD/sodipodi-0.dtd"
   xmlns:xlink="http://www.w3.org/1999/xlink"
   xmlns="http://www.w3.org/2000/svg"
   xmlns:svg="http://www.w3.org/2000/svg">
  <sodipodi:namedview
     id="namedview15"
     pagecolor="#ffffff"
     bordercolor="#000000"
     borderopacity="0.25"
     inkscape:showpageshadow="2"
     inkscape:pageopacity="0.0"
     inkscape:pagecheckerboard="0"
     inkscape:deskcolor="#d1d1d1"
     inkscape:zoom="5.9406306"
     inkscape:cx="81.641165"
     inkscape:cy="52.603843"
     inkscape:window-width="1904"
     inkscape:window-height="1032"
     inkscape:window-x="26"
     inkscape:window-y="23"
     inkscape:window-maximized="0"
     inkscape:current-layer="svg15" />
  <!-- svg-source:excalidraw -->
  <metadata
     id="metadata1" />
  <defs
     id="defs1">
    <linearGradient
       id="linearGradient15"
       inkscape:collect="always">
      <stop
         style="stop-color:#1e1e1e;stop-opacity:1;"
         offset="0"
         id="stop15" />
      <stop
         style="stop-color:#1e1e1e;stop-opacity:0.43773022;"
         offset="1"
         id="stop16" />
    </linearGradient>
    <style
       class="style-fonts"
       id="style1"></style>
    <radialGradient
       inkscape:collect="always"
       xlink:href="#linearGradient15"
       id="radialGradient16"
       cx="67.297788"
       cy="16.717725"
       fx="67.297788"
       fy="16.717725"
       r="75.677457"
       gradientTransform="matrix(1,0,0,0.14468579,0,14.298908)"
       gradientUnits="userSpaceOnUse" />
  </defs>
  <g
     stroke-linecap="round"
     transform="matrix(0.92094491,0,0,1.0645583,40.871505,6.1263035)"
     id="g2">
    <path
       d="m 33.64,14.55 c 0,0.84 -0.09,1.69 -0.26,2.52 -0.17,0.83 -0.42,1.66 -0.76,2.45 -0.33,0.79 -0.75,1.57 -1.24,2.3 -0.48,0.73 -1.05,1.43 -1.68,2.08 -0.62,0.64 -1.33,1.25 -2.07,1.79 -0.75,0.54 -1.56,1.03 -2.4,1.45 -0.85,0.42 -1.74,0.79 -2.66,1.07 -0.91,0.29 -1.87,0.51 -2.83,0.66 -0.96,0.15 -1.95,0.22 -2.92,0.22 -0.98,0 -1.96,-0.07 -2.92,-0.22 C 12.94,28.72 11.98,28.5 11.07,28.21 10.15,27.93 9.25,27.56 8.41,27.14 7.57,26.72 6.75,26.23 6.01,25.69 5.26,25.15 4.56,24.54 3.93,23.9 3.31,23.25 2.74,22.55 2.25,21.82 1.77,21.09 1.35,20.31 1.01,19.52 0.68,18.73 0.42,17.9 0.26,17.07 0.09,16.24 0,15.39 0,14.55 0,13.7 0.09,12.85 0.26,12.02 0.42,11.19 0.68,10.36 1.01,9.57 1.35,8.78 1.77,8 2.25,7.27 2.74,6.54 3.31,5.84 3.93,5.2 4.56,4.55 5.26,3.94 6.01,3.4 6.75,2.86 7.57,2.37 8.41,1.95 9.25,1.53 10.15,1.17 11.07,0.88 11.98,0.59 12.94,0.37 13.9,0.22 14.86,0.07 15.84,0 16.82,0 c 0.97,0 1.96,0.07 2.92,0.22 0.96,0.15 1.92,0.37 2.83,0.66 0.92,0.29 1.81,0.65 2.66,1.07 0.84,0.42 1.65,0.91 2.4,1.45 0.74,0.54 1.45,1.15 2.07,1.8 0.63,0.64 1.2,1.34 1.68,2.07 0.49,0.73 0.91,1.51 1.24,2.3 0.34,0.79 0.59,1.62 0.76,2.45 0.17,0.83 0.21,2.1 0.26,2.53 0.04,0.42 0.04,-0.43 0,0"
       stroke="none"
       stroke-width="0"
       fill="#ffffff"
       id="path1" />
    <path
       d="m 33.64,14.55 c 0,0.84 -0.09,1.69 -0.26,2.52 -0.17,0.83 -0.42,1.66 -0.76,2.45 -0.33,0.79 -0.75,1.57 -1.24,2.3 -0.48,0.73 -1.05,1.43 -1.68,2.08 -0.62,0.64 -1.33,1.25 -2.07,1.79 -0.75,0.54 -1.56,1.03 -2.4,1.45 -0.85,0.42 -1.74,0.79 -2.66,1.07 -0.91,0.29 -1.87,0.51 -2.83,0.66 -0.96,0.15 -1.95,0.22 -2.92,0.22 -0.98,0 -1.96,-0.07 -2.92,-0.22 C 12.94,28.72 11.98,28.5 11.07,28.21 10.15,27.93 9.25,27.56 8.41,27.14 7.57,26.72 6.75,26.23 6.01,25.69 5.26,25.15 4.56,24.54 3.93,23.9 3.31,23.25 2.74,22.55 2.25,21.82 1.77,21.09 1.35,20.31 1.01,19.52 0.68,18.73 0.42,17.9 0.26,17.07 0.09,16.24 0,15.39 0,14.55 0,13.7 0.09,12.85 0.26,12.02 0.42,11.19 0.68,10.36 1.01,9.57 1.35,8.78 1.77,8 2.25,7.27 2.74,6.54 3.31,5.84 3.93,5.2 4.56,4.55 5.26,3.94 6.01,3.4 6.75,2.86 7.57,2.37 8.41,1.95 9.25,1.53 10.15,1.17 11.07,0.88 11.98,0.59 12.94,0.37 13.9,0.22 14.86,0.07 15.84,0 16.82,0 c 0.97,0 1.96,0.07 2.92,0.22 0.96,0.15 1.92,0.37 2.83,0.66 0.92,0.29 1.81,0.65 2.66,1.07 0.84,0.42 1.65,0.91 2.4,1.45 0.74,0.54 1.45,1.15 2.07,1.8 0.63,0.64 1.2,1.34 1.68,2.07 0.49,0.73 0.91,1.51 1.24,2.3 0.34,0.79 0.59,1.62 0.76,2.45 0.17,0.83 0.21,2.1 0.26,2.53 0.04,0.42 0.04,-0.43 0,0"
       stroke="#ffffff"
       stroke-width="1"
       fill="none"
       id="path2" />
  </g>
  <g
     stroke-linecap="round"
     transform="matrix(0.92094491,0,0,1.0645583,24.628353,36.080848)"
     id="g4">
    <path
       d="m 33.64,14.55 c 0,0.84 -0.09,1.69 -0.26,2.52 -0.17,0.83 -0.42,1.66 -0.76,2.45 -0.33,0.79 -0.75,1.57 -1.24,2.3 -0.48,0.73 -1.05,1.43 -1.68,2.08 -0.62,0.64 -1.33,1.25 -2.07,1.79 -0.75,0.54 -1.56,1.03 -2.4,1.45 -0.85,0.42 -1.74,0.79 -2.66,1.07 -0.91,0.29 -1.87,0.51 -2.83,0.66 -0.96,0.15 -1.95,0.22 -2.92,0.22 -0.98,0 -1.96,-0.07 -2.92,-0.22 C 12.94,28.72 11.98,28.5 11.07,28.21 10.15,27.93 9.25,27.56 8.41,27.14 7.57,26.72 6.75,26.23 6.01,25.69 5.26,25.15 4.56,24.54 3.93,23.9 3.31,23.25 2.74,22.55 2.25,21.82 1.77,21.09 1.35,20.31 1.01,19.52 0.68,18.73 0.42,17.9 0.26,17.07 0.09,16.24 0,15.39 0,14.55 0,13.7 0.09,12.85 0.26,12.02 0.42,11.19 0.68,10.36 1.01,9.57 1.35,8.78 1.77,8 2.25,7.27 2.74,6.54 3.31,5.84 3.93,5.2 4.56,4.55 5.26,3.94 6.01,3.4 6.75,2.86 7.57,2.37 8.41,1.95 9.25,1.53 10.15,1.17 11.07,0.88 11.98,0.59 12.94,0.37 13.9,0.22 14.86,0.07 15.84,0 16.82,0 c 0.97,0 1.96,0.07 2.92,0.22 0.96,0.15 1.92,0.37 2.83,0.66 0.92,0.29 1.81,0.65 2.66,1.07 0.84,0.42 1.65,0.91 2.4,1.45 0.74,0.54 1.45,1.15 2.07,1.8 0.63,0.64 1.2,1.34 1.68,2.07 0.49,0.73 0.91,1.51 1.24,2.3 0.34,0.79 0.59,1.62 0.76,2.45 0.17,0.83 0.21,2.1 0.26,2.53 0.04,0.42 0.04,-0.43 0,0"
       stroke="none"
       stroke-width="0"
       fill="#ffffff"
       id="path3" />
    <path
       d="m 33.64,14.55 c 0,0.84 -0.09,1.69 -0.26,2.52 -0.17,0.83 -0.42,1.66 -0.76,2.45 -0.33,0.79 -0.75,1.57 -1.24,2.3 -0.48,0.73 -1.05,1.43 -1.68,2.08 -0.62,0.64 -1.33,1.25 -2.07,1.79 -0.75,0.54 -1.56,1.03 -2.4,1.45 -0.85,0.42 -1.74,0.79 -2.66,1.07 -0.91,0.29 -1.87,0.51 -2.83,0.66 -0.96,0.15 -1.95,0.22 -2.92,0.22 -0.98,0 -1.96,-0.07 -2.92,-0.22 C 12.94,28.72 11.98,28.5 11.07,28.21 10.15,27.93 9.25,27.56 8.41,27.14 7.57,26.72 6.75,26.23 6.01,25.69 5.26,25.15 4.56,24.54 3.93,23.9 3.31,23.25 2.74,22.55 2.25,21.82 1.77,21.09 1.35,20.31 1.01,19.52 0.68,18.73 0.42,17.9 0.26,17.07 0.09,16.24 0,15.39 0,14.55 0,13.7 0.09,12.85 0.26,12.02 0.42,11.19 0.68,10.36 1.01,9.57 1.35,8.78 1.77,8 2.25,7.27 2.74,6.54 3.31,5.84 3.93,5.2 4.56,4.55 5.26,3.94 6.01,3.4 6.75,2.86 7.57,2.37 8.41,1.95 9.25,1.53 10.15,1.17 11.07,0.88 11.98,0.59 12.94,0.37 13.9,0.22 14.86,0.07 15.84,0 16.82,0 c 0.97,0 1.96,0.07 2.92,0.22 0.96,0.15 1.92,0.37 2.83,0.66 0.92,0.29 1.81,0.65 2.66,1.07 0.84,0.42 1.65,0.91 2.4,1.45 0.74,0.54 1.45,1.15 2.07,1.8 0.63,0.64 1.2,1.34 1.68,2.07 0.49,0.73 0.91,1.51 1.24,2.3 0.34,0.79 0.59,1.62 0.76,2.45 0.17,0.83 0.21,2.1 0.26,2.53 0.04,0.42 0.04,-0.43 0,0"
       stroke="#ffffff"
       stroke-width="1"
       fill="none"
       id="path4" />
  </g>
  <g
     stroke-linecap="round"
     transform="matrix(0.92294148,0,0,1.0645193,75.676254,6.1268704)"
     id="g6">
    <path
       d="m 33.64,14.55 c 0,0.84 -0.09,1.69 -0.26,2.52 -0.17,0.83 -0.42,1.66 -0.76,2.45 -0.33,0.79 -0.75,1.57 -1.24,2.3 -0.48,0.73 -1.05,1.43 -1.68,2.08 -0.62,0.64 -1.33,1.25 -2.07,1.79 -0.75,0.54 -1.56,1.03 -2.4,1.45 -0.85,0.42 -1.74,0.79 -2.66,1.07 -0.91,0.29 -1.87,0.51 -2.83,0.66 -0.96,0.15 -1.95,0.22 -2.92,0.22 -0.98,0 -1.96,-0.07 -2.92,-0.22 C 12.94,28.72 11.98,28.5 11.07,28.21 10.15,27.93 9.25,27.56 8.41,27.14 7.57,26.72 6.75,26.23 6.01,25.69 5.26,25.15 4.56,24.54 3.93,23.9 3.31,23.25 2.74,22.55 2.25,21.82 1.77,21.09 1.35,20.31 1.01,19.52 0.68,18.73 0.42,17.9 0.26,17.07 0.09,16.24 0,15.39 0,14.55 0,13.7 0.09,12.85 0.26,12.02 0.42,11.19 0.68,10.36 1.01,9.57 1.35,8.78 1.77,8 2.25,7.27 2.74,6.54 3.31,5.84 3.93,5.2 4.56,4.55 5.26,3.94 6.01,3.4 6.75,2.86 7.57,2.37 8.41,1.95 9.25,1.53 10.15,1.17 11.07,0.88 11.98,0.59 12.94,0.37 13.9,0.22 14.86,0.07 15.84,0 16.82,0 c 0.97,0 1.96,0.07 2.92,0.22 0.96,0.15 1.92,0.37 2.83,0.66 0.92,0.29 1.81,0.65 2.66,1.07 0.84,0.42 1.65,0.91 2.4,1.45 0.74,0.54 1.45,1.15 2.07,1.8 0.63,0.64 1.2,1.34 1.68,2.07 0.49,0.73 0.91,1.51 1.24,2.3 0.34,0.79 0.59,1.62 0.76,2.45 0.17,0.83 0.21,2.1 0.26,2.53 0.04,0.42 0.04,-0.43 0,0"
       stroke="none"
       stroke-width="0"
       fill="#ffffff"
       id="path5" />
    <path
       d="m 33.64,14.55 c 0,0.84 -0.09,1.69 -0.26,2.52 -0.17,0.83 -0.42,1.66 -0.76,2.45 -0.33,0.79 -0.75,1.57 -1.24,2.3 -0.48,0.73 -1.05,1.43 -1.68,2.08 -0.62,0.64 -1.33,1.25 -2.07,1.79 -0.75,0.54 -1.56,1.03 -2.4,1.45 -0.85,0.42 -1.74,0.79 -2.66,1.07 -0.91,0.29 -1.87,0.51 -2.83,0.66 -0.96,0.15 -1.95,0.22 -2.92,0.22 -0.98,0 -1.96,-0.07 -2.92,-0.22 C 12.94,28.72 11.98,28.5 11.07,28.21 10.15,27.93 9.25,27.56 8.41,27.14 7.57,26.72 6.75,26.23 6.01,25.69 5.26,25.15 4.56,24.54 3.93,23.9 3.31,23.25 2.74,22.55 2.25,21.82 1.77,21.09 1.35,20.31 1.01,19.52 0.68,18.73 0.42,17.9 0.26,17.07 0.09,16.24 0,15.39 0,14.55 0,13.7 0.09,12.85 0.26,12.02 0.42,11.19 0.68,10.36 1.01,9.57 1.35,8.78 1.77,8 2.25,7.27 2.74,6.54 3.31,5.84 3.93,5.2 4.56,4.55 5.26,3.94 6.01,3.4 6.75,2.86 7.57,2.37 8.41,1.95 9.25,1.53 10.15,1.17 11.07,0.88 11.98,0.59 12.94,0.37 13.9,0.22 14.86,0.07 15.84,0 16.82,0 c 0.97,0 1.96,0.07 2.92,0.22 0.96,0.15 1.92,0.37 2.83,0.66 0.92,0.29 1.81,0.65 2.66,1.07 0.84,0.42 1.65,0.91 2.4,1.45 0.74,0.54 1.45,1.15 2.07,1.8 0.63,0.64 1.2,1.34 1.68,2.07 0.49,0.73 0.91,1.51 1.24,2.3 0.34,0.79 0.59,1.62 0.76,2.45 0.17,0.83 0.21,2.1 0.26,2.53 0.04,0.42 0.04,-0.43 0,0"
       stroke="#ffffff"
       stroke-width="1"
       fill="none"
       id="path6" />
  </g>
  <g
     stroke-linecap="round"
     transform="matrix(0.92094491,0,0,1.0645583,93.082898,36.080848)"
     id="g8">
    <path
       d="m 33.64,14.55 c 0,0.84 -0.09,1.69 -0.26,2.52 -0.17,0.83 -0.42,1.66 -0.76,2.45 -0.33,0.79 -0.75,1.57 -1.24,2.3 -0.48,0.73 -1.05,1.43 -1.68,2.08 -0.62,0.64 -1.33,1.25 -2.07,1.79 -0.75,0.54 -1.56,1.03 -2.4,1.45 -0.85,0.42 -1.74,0.79 -2.66,1.07 -0.91,0.29 -1.87,0.51 -2.83,0.66 -0.96,0.15 -1.95,0.22 -2.92,0.22 -0.98,0 -1.96,-0.07 -2.92,-0.22 C 12.94,28.72 11.98,28.5 11.07,28.21 10.15,27.93 9.25,27.56 8.41,27.14 7.57,26.72 6.75,26.23 6.01,25.69 5.26,25.15 4.56,24.54 3.93,23.9 3.31,23.25 2.74,22.55 2.25,21.82 1.77,21.09 1.35,20.31 1.01,19.52 0.68,18.73 0.42,17.9 0.26,17.07 0.09,16.24 0,15.39 0,14.55 0,13.7 0.09,12.85 0.26,12.02 0.42,11.19 0.68,10.36 1.01,9.57 1.35,8.78 1.77,8 2.25,7.27 2.74,6.54 3.31,5.84 3.93,5.2 4.56,4.55 5.26,3.94 6.01,3.4 6.75,2.86 7.57,2.37 8.41,1.95 9.25,1.53 10.15,1.17 11.07,0.88 11.98,0.59 12.94,0.37 13.9,0.22 14.86,0.07 15.84,0 16.82,0 c 0.97,0 1.96,0.07 2.92,0.22 0.96,0.15 1.92,0.37 2.83,0.66 0.92,0.29 1.81,0.65 2.66,1.07 0.84,0.42 1.65,0.91 2.4,1.45 0.74,0.54 1.45,1.15 2.07,1.8 0.63,0.64 1.2,1.34 1.68,2.07 0.49,0.73 0.91,1.51 1.24,2.3 0.34,0.79 0.59,1.62 0.76,2.45 0.17,0.83 0.21,2.1 0.26,2.53 0.04,0.42 0.04,-0.43 0,0"
       stroke="none"
       stroke-width="0"
       fill="#ffffff"
       id="path7" />
    <path
       d="m 33.64,14.55 c 0,0.84 -0.09,1.69 -0.26,2.52 -0.17,0.83 -0.42,1.66 -0.76,2.45 -0.33,0.79 -0.75,1.57 -1.24,2.3 -0.48,0.73 -1.05,1.43 -1.68,2.08 -0.62,0.64 -1.33,1.25 -2.07,1.79 -0.75,0.54 -1.56,1.03 -2.4,1.45 -0.85,0.42 -1.74,0.79 -2.66,1.07 -0.91,0.29 -1.87,0.51 -2.83,0.66 -0.96,0.15 -1.95,0.22 -2.92,0.22 -0.98,0 -1.96,-0.07 -2.92,-0.22 C 12.94,28.72 11.98,28.5 11.07,28.21 10.15,27.93 9.25,27.56 8.41,27.14 7.57,26.72 6.75,26.23 6.01,25.69 5.26,25.15 4.56,24.54 3.93,23.9 3.31,23.25 2.74,22.55 2.25,21.82 1.77,21.09 1.35,20.31 1.01,19.52 0.68,18.73 0.42,17.9 0.26,17.07 0.09,16.24 0,15.39 0,14.55 0,13.7 0.09,12.85 0.26,12.02 0.42,11.19 0.68,10.36 1.01,9.57 1.35,8.78 1.77,8 2.25,7.27 2.74,6.54 3.31,5.84 3.93,5.2 4.56,4.55 5.26,3.94 6.01,3.4 6.75,2.86 7.57,2.37 8.41,1.95 9.25,1.53 10.15,1.17 11.07,0.88 11.98,0.59 12.94,0.37 13.9,0.22 14.86,0.07 15.84,0 16.82,0 c 0.97,0 1.96,0.07 2.92,0.22 0.96,0.15 1.92,0.37 2.83,0.66 0.92,0.29 1.81,0.65 2.66,1.07 0.84,0.42 1.65,0.91 2.4,1.45 0.74,0.54 1.45,1.15 2.07,1.8 0.63,0.64 1.2,1.34 1.68,2.07 0.49,0.73 0.91,1.51 1.24,2.3 0.34,0.79 0.59,1.62 0.76,2.45 0.17,0.83 0.21,2.1 0.26,2.53 0.04,0.42 0.04,-0.43 0,0"
       stroke="#ffffff"
       stroke-width="1"
       fill="none"
       id="path8" />
  </g>
  <g
     stroke-linecap="round"
     transform="matrix(0.92094491,0,0,1.0645583,39.871505,65.521471)"
     id="g10">
    <path
       d="m 33.64,14.55 c 0,0.84 -0.09,1.69 -0.26,2.52 -0.17,0.83 -0.42,1.66 -0.76,2.45 -0.33,0.79 -0.75,1.57 -1.24,2.3 -0.48,0.73 -1.05,1.43 -1.68,2.08 -0.62,0.64 -1.33,1.25 -2.07,1.79 -0.75,0.54 -1.56,1.03 -2.4,1.45 -0.85,0.42 -1.74,0.79 -2.66,1.07 -0.91,0.29 -1.87,0.51 -2.83,0.66 -0.96,0.15 -1.95,0.22 -2.92,0.22 -0.98,0 -1.96,-0.07 -2.92,-0.22 C 12.94,28.72 11.98,28.5 11.07,28.21 10.15,27.93 9.25,27.56 8.41,27.14 7.57,26.72 6.75,26.23 6.01,25.69 5.26,25.15 4.56,24.54 3.93,23.9 3.31,23.25 2.74,22.55 2.25,21.82 1.77,21.09 1.35,20.31 1.01,19.52 0.68,18.73 0.42,17.9 0.26,17.07 0.09,16.24 0,15.39 0,14.55 0,13.7 0.09,12.85 0.26,12.02 0.42,11.19 0.68,10.36 1.01,9.57 1.35,8.78 1.77,8 2.25,7.27 2.74,6.54 3.31,5.84 3.93,5.2 4.56,4.55 5.26,3.94 6.01,3.4 6.75,2.86 7.57,2.37 8.41,1.95 9.25,1.53 10.15,1.17 11.07,0.88 11.98,0.59 12.94,0.37 13.9,0.22 14.86,0.07 15.84,0 16.82,0 c 0.97,0 1.96,0.07 2.92,0.22 0.96,0.15 1.92,0.37 2.83,0.66 0.92,0.29 1.81,0.65 2.66,1.07 0.84,0.42 1.65,0.91 2.4,1.45 0.74,0.54 1.45,1.15 2.07,1.8 0.63,0.64 1.2,1.34 1.68,2.07 0.49,0.73 0.91,1.51 1.24,2.3 0.34,0.79 0.59,1.62 0.76,2.45 0.17,0.83 0.21,2.1 0.26,2.53 0.04,0.42 0.04,-0.43 0,0"
       stroke="none"
       stroke-width="0"
       fill="#ffffff"
       id="path9" />
    <path
       d="m 33.64,14.55 c 0,0.84 -0.09,1.69 -0.26,2.52 -0.17,0.83 -0.42,1.66 -0.76,2.45 -0.33,0.79 -0.75,1.57 -1.24,2.3 -0.48,0.73 -1.05,1.43 -1.68,2.08 -0.62,0.64 -1.33,1.25 -2.07,1.79 -0.75,0.54 -1.56,1.03 -2.4,1.45 -0.85,0.42 -1.74,0.79 -2.66,1.07 -0.91,0.29 -1.87,0.51 -2.83,0.66 -0.96,0.15 -1.95,0.22 -2.92,0.22 -0.98,0 -1.96,-0.07 -2.92,-0.22 C 12.94,28.72 11.98,28.5 11.07,28.21 10.15,27.93 9.25,27.56 8.41,27.14 7.57,26.72 6.75,26.23 6.01,25.69 5.26,25.15 4.56,24.54 3.93,23.9 3.31,23.25 2.74,22.55 2.25,21.82 1.77,21.09 1.35,20.31 1.01,19.52 0.68,18.73 0.42,17.9 0.26,17.07 0.09,16.24 0,15.39 0,14.55 0,13.7 0.09,12.85 0.26,12.02 0.42,11.19 0.68,10.36 1.01,9.57 1.35,8.78 1.77,8 2.25,7.27 2.74,6.54 3.31,5.84 3.93,5.2 4.56,4.55 5.26,3.94 6.01,3.4 6.75,2.86 7.57,2.37 8.41,1.95 9.25,1.53 10.15,1.17 11.07,0.88 11.98,0.59 12.94,0.37 13.9,0.22 14.86,0.07 15.84,0 16.82,0 c 0.97,0 1.96,0.07 2.92,0.22 0.96,0.15 1.92,0.37 2.83,0.66 0.92,0.29 1.81,0.65 2.66,1.07 0.84,0.42 1.65,0.91 2.4,1.45 0.74,0.54 1.45,1.15 2.07,1.8 0.63,0.64 1.2,1.34 1.68,2.07 0.49,0.73 0.91,1.51 1.24,2.3 0.34,0.79 0.59,1.62 0.76,2.45 0.17,0.83 0.21,2.1 0.26,2.53 0.04,0.42 0.04,-0.43 0,0"
       stroke="#ffffff"
       stroke-width="1"
       fill="none"
       id="path10" />
  </g>
  <g
     stroke-linecap="round"
     transform="matrix(0.92094491,0,0,1.0645583,74.675764,65.521471)"
     id="g12">
    <path
       d="m 33.64,14.55 c 0,0.84 -0.09,1.69 -0.26,2.52 -0.17,0.83 -0.42,1.66 -0.76,2.45 -0.33,0.79 -0.75,1.57 -1.24,2.3 -0.48,0.73 -1.05,1.43 -1.68,2.08 -0.62,0.64 -1.33,1.25 -2.07,1.79 -0.75,0.54 -1.56,1.03 -2.4,1.45 -0.85,0.42 -1.74,0.79 -2.66,1.07 -0.91,0.29 -1.87,0.51 -2.83,0.66 -0.96,0.15 -1.95,0.22 -2.92,0.22 -0.98,0 -1.96,-0.07 -2.92,-0.22 C 12.94,28.72 11.98,28.5 11.07,28.21 10.15,27.93 9.25,27.56 8.41,27.14 7.57,26.72 6.75,26.23 6.01,25.69 5.26,25.15 4.56,24.54 3.93,23.9 3.31,23.25 2.74,22.55 2.25,21.82 1.77,21.09 1.35,20.31 1.01,19.52 0.68,18.73 0.42,17.9 0.26,17.07 0.09,16.24 0,15.39 0,14.55 0,13.7 0.09,12.85 0.26,12.02 0.42,11.19 0.68,10.36 1.01,9.57 1.35,8.78 1.77,8 2.25,7.27 2.74,6.54 3.31,5.84 3.93,5.2 4.56,4.55 5.26,3.94 6.01,3.4 6.75,2.86 7.57,2.37 8.41,1.95 9.25,1.53 10.15,1.17 11.07,0.88 11.98,0.59 12.94,0.37 13.9,0.22 14.86,0.07 15.84,0 16.82,0 c 0.97,0 1.96,0.07 2.92,0.22 0.96,0.15 1.92,0.37 2.83,0.66 0.92,0.29 1.81,0.65 2.66,1.07 0.84,0.42 1.65,0.91 2.4,1.45 0.74,0.54 1.45,1.15 2.07,1.8 0.63,0.64 1.2,1.34 1.68,2.07 0.49,0.73 0.91,1.51 1.24,2.3 0.34,0.79 0.59,1.62 0.76,2.45 0.17,0.83 0.21,2.1 0.26,2.53 0.04,0.42 0.04,-0.43 0,0"
       stroke="none"
       stroke-width="0"
       fill="#ffffff"
       id="path11" />
    <path
       d="m 33.64,14.55 c 0,0.84 -0.09,1.69 -0.26,2.52 -0.17,0.83 -0.42,1.66 -0.76,2.45 -0.33,0.79 -0.75,1.57 -1.24,2.3 -0.48,0.73 -1.05,1.43 -1.68,2.08 -0.62,0.64 -1.33,1.25 -2.07,1.79 -0.75,0.54 -1.56,1.03 -2.4,1.45 -0.85,0.42 -1.74,0.79 -2.66,1.07 -0.91,0.29 -1.87,0.51 -2.83,0.66 -0.96,0.15 -1.95,0.22 -2.92,0.22 -0.98,0 -1.96,-0.07 -2.92,-0.22 C 12.94,28.72 11.98,28.5 11.07,28.21 10.15,27.93 9.25,27.56 8.41,27.14 7.57,26.72 6.75,26.23 6.01,25.69 5.26,25.15 4.56,24.54 3.93,23.9 3.31,23.25 2.74,22.55 2.25,21.82 1.77,21.09 1.35,20.31 1.01,19.52 0.68,18.73 0.42,17.9 0.26,17.07 0.09,16.24 0,15.39 0,14.55 0,13.7 0.09,12.85 0.26,12.02 0.42,11.19 0.68,10.36 1.01,9.57 1.35,8.78 1.77,8 2.25,7.27 2.74,6.54 3.31,5.84 3.93,5.2 4.56,4.55 5.26,3.94 6.01,3.4 6.75,2.86 7.57,2.37 8.41,1.95 9.25,1.53 10.15,1.17 11.07,0.88 11.98,0.59 12.94,0.37 13.9,0.22 14.86,0.07 15.84,0 16.82,0 c 0.97,0 1.96,0.07 2.92,0.22 0.96,0.15 1.92,0.37 2.83,0.66 0.92,0.29 1.81,0.65 2.66,1.07 0.84,0.42 1.65,0.91 2.4,1.45 0.74,0.54 1.45,1.15 2.07,1.8 0.63,0.64 1.2,1.34 1.68,2.07 0.49,0.73 0.91,1.51 1.24,2.3 0.34,0.79 0.59,1.62 0.76,2.45 0.17,0.83 0.21,2.1 0.26,2.53 0.04,0.42 0.04,-0.43 0,0"
       stroke="#ffffff"
       stroke-width="1"
       fill="none"
       id="path12" />
  </g>
  <g
     stroke-linecap="round"
     transform="matrix(0.92094491,0,0,1.0645583,58.810171,36.080848)"
     id="g14">
    <path
       d="m 33.64,14.55 c 0,0.84 -0.09,1.69 -0.26,2.52 -0.17,0.83 -0.42,1.66 -0.76,2.45 -0.33,0.79 -0.75,1.57 -1.24,2.3 -0.48,0.73 -1.05,1.43 -1.68,2.08 -0.62,0.64 -1.33,1.25 -2.07,1.79 -0.75,0.54 -1.56,1.03 -2.4,1.45 -0.85,0.42 -1.74,0.79 -2.66,1.07 -0.91,0.29 -1.87,0.51 -2.83,0.66 -0.96,0.15 -1.95,0.22 -2.92,0.22 -0.98,0 -1.96,-0.07 -2.92,-0.22 C 12.94,28.72 11.98,28.5 11.07,28.21 10.15,27.93 9.25,27.56 8.41,27.14 7.57,26.72 6.75,26.23 6.01,25.69 5.26,25.15 4.56,24.54 3.93,23.9 3.31,23.25 2.74,22.55 2.25,21.82 1.77,21.09 1.35,20.31 1.01,19.52 0.68,18.73 0.42,17.9 0.26,17.07 0.09,16.24 0,15.39 0,14.55 0,13.7 0.09,12.85 0.26,12.02 0.42,11.19 0.68,10.36 1.01,9.57 1.35,8.78 1.77,8 2.25,7.27 2.74,6.54 3.31,5.84 3.93,5.2 4.56,4.55 5.26,3.94 6.01,3.4 6.75,2.86 7.57,2.37 8.41,1.95 9.25,1.53 10.15,1.17 11.07,0.88 11.98,0.59 12.94,0.37 13.9,0.22 14.86,0.07 15.84,0 16.82,0 c 0.97,0 1.96,0.07 2.92,0.22 0.96,0.15 1.92,0.37 2.83,0.66 0.92,0.29 1.81,0.65 2.66,1.07 0.84,0.42 1.65,0.91 2.4,1.45 0.74,0.54 1.45,1.15 2.07,1.8 0.63,0.64 1.2,1.34 1.68,2.07 0.49,0.73 0.91,1.51 1.24,2.3 0.34,0.79 0.59,1.62 0.76,2.45 0.17,0.83 0.21,2.1 0.26,2.53 0.04,0.42 0.04,-0.43 0,0"
       stroke="none"
       stroke-width="0"
       fill="#ffd43b"
       id="path13" />
    <path
       d="m 33.64,14.55 c 0,0.84 -0.09,1.69 -0.26,2.52 -0.17,0.83 -0.42,1.66 -0.76,2.45 -0.33,0.79 -0.75,1.57 -1.24,2.3 -0.48,0.73 -1.05,1.43 -1.68,2.08 -0.62,0.64 -1.33,1.25 -2.07,1.79 -0.75,0.54 -1.56,1.03 -2.4,1.45 -0.85,0.42 -1.74,0.79 -2.66,1.07 -0.91,0.29 -1.87,0.51 -2.83,0.66 -0.96,0.15 -1.95,0.22 -2.92,0.22 -0.98,0 -1.96,-0.07 -2.92,-0.22 C 12.94,28.72 11.98,28.5 11.07,28.21 10.15,27.93 9.25,27.56 8.41,27.14 7.57,26.72 6.75,26.23 6.01,25.69 5.26,25.15 4.56,24.54 3.93,23.9 3.31,23.25 2.74,22.55 2.25,21.82 1.77,21.09 1.35,20.31 1.01,19.52 0.68,18.73 0.42,17.9 0.26,17.07 0.09,16.24 0,15.39 0,14.55 0,13.7 0.09,12.85 0.26,12.02 0.42,11.19 0.68,10.36 1.01,9.57 1.35,8.78 1.77,8 2.25,7.27 2.74,6.54 3.31,5.84 3.93,5.2 4.56,4.55 5.26,3.94 6.01,3.4 6.75,2.86 7.57,2.37 8.41,1.95 9.25,1.53 10.15,1.17 11.07,0.88 11.98,0.59 12.94,0.37 13.9,0.22 14.86,0.07 15.84,0 16.82,0 c 0.97,0 1.96,0.07 2.92,0.22 0.96,0.15 1.92,0.37 2.83,0.66 0.92,0.29 1.81,0.65 2.66,1.07 0.84,0.42 1.65,0.91 2.4,1.45 0.74,0.54 1.45,1.15 2.07,1.8 0.63,0.64 1.2,1.34 1.68,2.07 0.49,0.73 0.91,1.51 1.24,2.3 0.34,0.79 0.59,1.62 0.76,2.45 0.17,0.83 0.21,2.1 0.26,2.53 0.04,0.42 0.04,-0.43 0,0"
       stroke="#ffd43b"
       stroke-width="1"
       fill="none"
       id="path14" />
  </g>
  <g
     transform="translate(10 61.537071918267884) rotate(0 67.18035590241016 16.879179909431514)"
     id="g15">
    <text
       x="67.180359"
       y="27.197496"
       font-family="'Lilita One', 'Segoe UI Emoji'"
       font-size="29.3551px"
       fill="#1e1e1e"
       text-anchor="middle"
       style="font-size:29.3551px;font-family:'Lilita One', 'Segoe UI Emoji';direction:ltr;dominant-baseline:alphabetic;text-anchor:middle;white-space:pre;fill:url(#radialGradient16)"
       direction="ltr"
       dominant-baseline="alphabetic"
       id="text14"><tspan
         style="font-style:normal;font-variant:normal;font-weight:normal;font-stretch:normal;font-size:29.3551px;font-family:'Source Serif 4 Caption';-inkscape-font-specification:'Source Serif 4 Caption, Normal';font-variant-ligatures:normal;font-variant-caps:normal;font-variant-numeric:normal;font-variant-east-asian:normal;fill:#333333;fill-opacity:1"
         id="tspan15">RareIndex</tspan></text>
  </g>
</svg>
